<svg xmlns="http://www.w3.org/2000/svg" width="17.43" height="17.43" viewBox="0 0 17.43 17.43"><path d="M6.018,0h-4A2.018,2.018,0,0,0,0,2.016v4A2.018,2.018,0,0,0,2.016,8.034h4A2.018,2.018,0,0,0,8.034,6.018v-4A2.018,2.018,0,0,0,6.018,0Zm.654,6.018a.655.655,0,0,1-.654.654h-4a.655.655,0,0,1-.654-.654v-4a.655.655,0,0,1,.654-.654h4a.655.655,0,0,1,.654.654Z"/><g transform="translate(9.396)"><path d="M281.991,0h-3.949A2.045,2.045,0,0,0,276,2.043V5.991a2.045,2.045,0,0,0,2.043,2.043h3.949a2.045,2.045,0,0,0,2.043-2.043V2.043A2.045,2.045,0,0,0,281.991,0Zm.681,5.991a.682.682,0,0,1-.681.681h-3.949a.682.682,0,0,1-.681-.681V2.043a.682.682,0,0,1,.681-.681h3.949a.682.682,0,0,1,.681.681Z" transform="translate(-276)"/></g><g transform="translate(0 9.396)"><path d="M6.018,276h-4A2.018,2.018,0,0,0,0,278.016v4a2.018,2.018,0,0,0,2.016,2.016h4a2.018,2.018,0,0,0,2.016-2.016v-4A2.018,2.018,0,0,0,6.018,276Zm.654,6.018a.655.655,0,0,1-.654.654h-4a.655.655,0,0,1-.654-.654v-4a.655.655,0,0,1,.654-.654h4a.655.655,0,0,1,.654.654Z" transform="translate(0 -276)"/></g><g transform="translate(9.396 9.396)"><path d="M281.991,276h-3.949A2.045,2.045,0,0,0,276,278.043v3.949a2.045,2.045,0,0,0,2.043,2.043h3.949a2.045,2.045,0,0,0,2.043-2.043v-3.949A2.045,2.045,0,0,0,281.991,276Zm.681,5.991a.682.682,0,0,1-.681.681h-3.949a.682.682,0,0,1-.681-.681v-3.949a.682.682,0,0,1,.681-.681h3.949a.682.682,0,0,1,.681.681Z" transform="translate(-276 -276)"/></g></svg>